<svg width="38" height="38" viewBox="0 0 38 38" fill="none" xmlns="http://www.w3.org/2000/svg">
<path d="M9.78889 6.44841L11.5811 9.00872C8.35742 11.2695 6.25 15.0136 6.25 19.25C6.25 26.1536 11.8464 31.75 18.75 31.75C25.6536 31.75 31.25 26.1536 31.25 19.25C31.25 15.0136 29.1425 11.2695 25.9189 9.00872L27.7111 6.44841C31.7408 9.27436 34.375 13.9545 34.375 19.25C34.375 27.8794 27.3794 34.875 18.75 34.875C10.1205 34.875 3.125 27.8794 3.125 19.25C3.125 13.9545 5.75928 9.27436 9.78889 6.44841ZM17.1875 19.25V3.625H20.3125V19.25H17.1875Z" fill="white"/>
</svg>
