<svg width="38" height="38" viewBox="0 0 38 38" fill="none" xmlns="http://www.w3.org/2000/svg">
<path d="M7.03125 16.4062C5.74219 16.4062 4.6875 17.4609 4.6875 18.75C4.6875 20.0391 5.74219 21.0938 7.03125 21.0938C8.32031 21.0938 9.375 20.0391 9.375 18.75C9.375 17.4609 8.32031 16.4062 7.03125 16.4062ZM30.4688 16.4062C29.1797 16.4062 28.125 17.4609 28.125 18.75C28.125 20.0391 29.1797 21.0938 30.4688 21.0938C31.7578 21.0938 32.8125 20.0391 32.8125 18.75C32.8125 17.4609 31.7578 16.4062 30.4688 16.4062ZM18.75 16.4062C17.4609 16.4062 16.4062 17.4609 16.4062 18.75C16.4062 20.0391 17.4609 21.0938 18.75 21.0938C20.0391 21.0938 21.0938 20.0391 21.0938 18.75C21.0938 17.4609 20.0391 16.4062 18.75 16.4062Z" fill="white"/>
</svg>
