<svg width="38" height="38" viewBox="0 0 38 38" fill="none" xmlns="http://www.w3.org/2000/svg">
<path d="M5.2179 26.8333C4.54251 25.6634 4.03558 24.4427 3.68958 23.1988C5.20906 22.4234 6.24956 20.8436 6.24956 19.0208C6.24956 17.1994 5.21062 15.6205 3.69301 14.8446C4.39101 12.3275 5.71651 9.9834 7.60115 8.06737C9.03234 8.99572 10.9209 9.10694 12.4996 8.19548C14.0783 7.28401 14.9262 5.5929 14.8378 3.88929C17.4395 3.21516 20.1323 3.23929 22.6611 3.89332C22.5742 5.59557 23.422 7.28473 24.9995 8.19548C26.5783 9.10691 28.4667 8.99572 29.8978 8.06746C30.802 8.98901 31.6058 10.0385 32.2812 11.2083C32.9566 12.3781 33.4636 13.599 33.8095 14.8428C32.29 15.6181 31.2495 17.198 31.2495 19.0208C31.2495 20.8424 32.2884 22.4211 33.8061 23.197C33.1081 25.7141 31.7827 28.0581 29.898 29.9742C28.4667 29.0459 26.5783 28.9347 24.9995 29.8461C23.4208 30.7575 22.573 32.4488 22.6612 34.1523C20.0597 34.8264 17.3669 34.8024 14.838 34.1483C14.9249 32.4459 14.077 30.7569 12.4996 29.8461C10.9209 28.9347 9.03248 29.0458 7.60131 29.9741C6.69714 29.0525 5.89331 28.0031 5.2179 26.8333ZM14.0621 27.1398C15.7673 28.1244 16.992 29.6809 17.5786 31.4672C18.3572 31.5413 19.1409 31.5424 19.9197 31.4697C20.5059 29.6825 21.7309 28.1248 23.437 27.1398C25.1431 26.1547 27.1047 25.8728 28.9456 26.2586C29.3978 25.6205 29.7887 24.9411 30.1139 24.2298C28.8603 22.8288 28.1245 20.9898 28.1245 19.0208C28.1245 17.0517 28.8603 15.213 30.1139 13.8119C29.9512 13.4588 29.7716 13.1114 29.5748 12.7708C29.3781 12.4301 29.1672 12.1009 28.9427 11.7836C27.1027 12.1685 25.1423 11.8863 23.437 10.9018C21.7317 9.91727 20.5072 8.3606 19.9205 6.57446C19.142 6.50038 18.3581 6.49932 17.5795 6.57191C16.9931 8.35908 15.7681 9.91679 14.0621 10.9018C12.3559 11.8868 10.3944 12.1688 8.55356 11.783C8.10133 12.4211 7.71036 13.1004 7.38525 13.8117C8.63876 15.2128 9.37456 17.0517 9.37456 19.0208C9.37456 20.9898 8.63879 22.8286 7.38525 24.2297C7.54792 24.5828 7.72756 24.9302 7.92425 25.2708C8.12092 25.6114 8.33187 25.9406 8.55643 26.258C10.3965 25.8731 12.3568 26.1553 14.0621 27.1398ZM18.7495 23.7083C16.1608 23.7083 14.0621 21.6097 14.0621 19.0208C14.0621 16.432 16.1608 14.3333 18.7495 14.3333C21.3384 14.3333 23.437 16.432 23.437 19.0208C23.437 21.6097 21.3384 23.7083 18.7495 23.7083ZM18.7495 20.5833C19.6125 20.5833 20.312 19.8838 20.312 19.0208C20.312 18.1578 19.6125 17.4583 18.7495 17.4583C17.8866 17.4583 17.187 18.1578 17.187 19.0208C17.187 19.8838 17.8866 20.5833 18.7495 20.5833Z" fill="white"/>
</svg>
